# xmcd
# 
# Track frame offsets:
#     150
#     15479
#     31719
#     47488
#     60474
#     72034
#     88684
#     103894
#     121899
#     139319
#     156029
#     168614
#     182419
#     195514
#     211834
#     227254
#     242214
#     256824
# 
# Disc length: 3621
# 
# Revision: 2
# Processed by: cddbd v1.5.2PL0 Copyright (c) Steve Scherf et al.
# Submitted via: fre:ac v1.0.17
# 
DISCID=e10e2312
DTITLE=Various Artist - American Legends CD2
DYEAR=2004
DGENRE=Country
TTITLE0=Billy Ray Cyrus - Achy Breaky Heart (Album Version) 
TTITLE1=The Charlie Daniels Band - The Devil Went Down To Georgia (Album Version)
TTITLE2=Alabama - Sad Lookin' Moon 
TTITLE3=Lynn Anderson - Rose Garden
TTITLE4=Crystal Gayle - Don't It Make My Brown Eyes Blue (Album Version) 
TTITLE5=Mary Chapin Carpenter - Shut Up And Kiss Me (Album Version) 
TTITLE6=Patty Loveless - You Can Feel Bad (Album Version) 
TTITLE7=C.W. McCALL - Convoy
TTITLE8=Collin Raye - Love, Me (Album Version)
TTITLE9=Oak Ridge Boys - Elvira (Album Version)
TTITLE10=Jerry Reed - Eastbound And Down 
TTITLE11=Tanya Tucker - What's Your Mama's Name (Album Version)
TTITLE12=Larry Gatlin and The Gatlin Brothers - Houston (Means I'm One Day Closer To You) (Album Version) 
TTITLE13=Debby Boone - You Light Up My Life  
TTITLE14=Rosanne Cash - Never Be You (Album Version)
TTITLE15=The Judds - ave Mercy
TTITLE16=Ronnie Milsap - There's No Gettin' Over Me 
TTITLE17=John Denver - Country Roads (live)
EXTD=
EXTT0=
EXTT1=
EXTT2=
EXTT3=
EXTT4=
EXTT5=
EXTT6=
EXTT7=
EXTT8=
EXTT9=
EXTT10=
EXTT11=
EXTT12=
EXTT13=
EXTT14=
EXTT15=
EXTT16=
EXTT17=
PLAYORDER=
